<?xml version="1.0" standalone="no"?>
<!DOCTYPE svg PUBLIC "-//W3C//DTD SVG 20010904//EN"
 "http://www.w3.org/TR/2001/REC-SVG-20010904/DTD/svg10.dtd">
<svg version="1.0" xmlns="http://www.w3.org/2000/svg"
 width="512.000000pt" height="512.000000pt" viewBox="0 0 512.000000 512.000000"
 preserveAspectRatio="xMidYMid meet">

<g transform="translate(0.000000,512.000000) scale(0.100000,-0.100000)"
fill="#000000" stroke="none">
<path d="M880 4947 c-49 -16 -133 -102 -148 -153 -18 -60 -18 -4408 0 -4468
16 -55 99 -138 154 -154 32 -9 422 -12 1676 -12 1846 0 1693 -7 1771 80 24 26
49 66 55 88 9 30 12 458 12 1751 l0 1712 -25 24 c-32 33 -78 33 -110 0 l-25
-24 0 -1711 0 -1711 -25 -24 -24 -25 -1631 0 -1631 0 -24 25 -25 24 0 2191 0
2191 25 24 24 25 1191 0 1191 0 24 25 c16 15 25 36 25 55 0 19 -9 40 -25 55
l-24 25 -1198 -1 c-843 -1 -1208 -4 -1233 -12z"/>
<path d="M3545 4855 l-25 -24 0 -312 c0 -215 4 -324 12 -353 16 -55 99 -138
154 -154 29 -8 138 -12 353 -12 l312 0 24 25 c17 16 25 35 25 57 0 30 -35 67
-383 415 -348 348 -385 383 -415 383 -22 0 -41 -8 -57 -25z m360 -475 l220
-220 -198 0 c-266 0 -247 -18 -247 245 0 107 1 195 3 195 1 0 101 -99 222
-220z"/>
<path d="M1605 4071 c-91 -23 -173 -90 -215 -176 -19 -41 -24 -66 -24 -135 -1
-78 2 -90 33 -148 38 -70 70 -100 145 -140 48 -25 61 -26 214 -30 l162 -4 0
-279 0 -279 -255 0 -256 0 -24 -25 -25 -24 0 -271 0 -271 25 -24 24 -25 256 0
255 0 0 -257 0 -258 -272 -155 c-388 -221 -390 -197 27 -437 165 -94 311 -172
324 -172 13 -1 148 70 303 159 l280 160 527 0 c605 0 591 -2 664 80 24 26 49
66 55 88 17 56 17 968 0 1026 -16 55 -99 138 -154 154 -28 8 -130 12 -319 12
l-278 0 61 64 c49 51 62 71 62 96 0 42 -39 80 -82 80 -28 0 -50 -18 -175 -143
-128 -128 -143 -146 -143 -177 0 -31 15 -49 143 -177 125 -125 147 -143 175
-143 43 0 82 38 82 80 0 25 -13 45 -62 96 l-61 64 277 0 277 0 24 -25 25 -24
0 -471 0 -471 -25 -24 -24 -25 -525 0 -526 0 -249 143 -250 142 -1 258 0 257
255 0 256 0 24 25 25 24 0 271 0 271 -25 24 -24 25 -256 0 -255 0 0 279 0 279
163 4 c152 4 165 5 213 30 75 40 107 70 145 140 31 58 34 70 33 148 0 72 -4
93 -26 136 -39 75 -70 107 -140 145 l-63 34 -385 2 c-212 1 -398 -2 -415 -6z
m801 -177 c53 -39 69 -71 69 -134 0 -63 -16 -95 -69 -134 -26 -20 -42 -21
-384 -24 -234 -2 -370 1 -394 8 -101 29 -140 168 -71 251 50 58 53 59 455 56
353 -2 368 -3 394 -23z m74 -1334 l0 -160 -480 0 -480 0 0 160 0 160 480 0
480 0 0 -160z m-278 -1087 c103 -60 188 -110 188 -113 0 -8 -374 -220 -389
-220 -15 0 -391 212 -391 220 0 8 374 219 389 220 8 0 99 -48 203 -107z"/>
</g>
</svg>
